Coordinates
version=1
nRows=18
nColumns=22
inDegrees=yes

Units are S.I. units (second, meters, Newtons, ...)
If the header above contains a line with 'inDegrees', this indicates whether rotational values are in degrees (yes) or radians (no).

endheader
time	pelvis_tilt	pelvis_list	pelvis_rotation	pelvis_tx	pelvis_ty	pelvis_tz	hip_flexion_r	hip_adduction_r	hip_rotation_r	knee_angle_r	ankle_angle_r	subtalar_angle_r	hip_flexion_l	hip_adduction_l	hip_rotation_l	knee_angle_l	ankle_angle_l	subtalar_angle_l	lumbar_extension	lumbar_bending	lumbar_rotation
      4.74000000	      2.66817080	     -1.49447040	     20.75241700	     -0.08841824	      0.99852090	     -0.72802350	     12.42429027	     12.08009011	    -15.48536000	    -18.71767809	      6.79307178	    -10.64099685	      5.85437116	     -7.90158621	    -12.49326870	    -60.66281623	     -4.88398177	     14.01549159	    -13.58775382	      5.47030153	     -0.17411359
      4.75000000	      2.66895118	     -1.58728923	     19.87991855	     -0.08181217	      0.99854681	     -0.72920386	     11.99571002	     12.34993989	    -14.66720776	    -18.81262581	      7.10052242	    -10.68505362	      6.96765812	     -8.41933914	    -12.13472701	    -62.12519240	     -4.54653365	     13.82671219	    -13.67291698	      5.46552492	      0.17150991
      4.76000000	      2.75072308	     -1.64930096	     18.97207695	     -0.07522391	      0.99873908	     -0.73022082	     11.47508898	     12.61138771	    -13.85439976	    -18.92642515	      7.43575163	    -10.72054287	      7.93220931	     -8.94083432	    -11.77865664	    -63.33054986	     -4.01949672	     13.64955922	    -13.87009079	      5.44038569	      0.56850285
      4.77000000	      2.79190937	     -1.68702011	     18.02894003	     -0.06867377	      0.99896281	     -0.73105497	     10.96640259	     12.84296735	    -12.93057045	    -19.00796928	      7.69980600	    -10.73068700	      8.88320602	     -9.41496276	    -11.40095601	    -64.27938636	     -3.45229657	     13.29847208	    -14.02904216	      5.35527254	      0.97855864
      4.78000000	      2.86459868	     -1.70104651	     17.06925935	     -0.06216205	      0.99929036	     -0.73174477	     10.41359002	     13.05109310	    -12.01018619	    -19.08977682	      7.96622164	    -10.73847094	      9.73763444	     -9.86093085	    -10.97930559	    -64.96111364	     -2.82691424	     12.91516475	    -14.23073963	      5.23766095	      1.40905415
      4.79000000	      2.93848465	     -1.69460914	     16.09606060	     -0.05569544	      0.99968228	     -0.73228429	      9.84231671	     13.23275655	    -11.06659333	    -19.15544148	      8.21052963	    -10.73576760	     10.52735527	    -10.26542055	    -10.50707558	    -65.37550951	     -2.21700401	     12.41630671	    -14.43695807	      5.07995166	      1.84005004
      4.80000000	      3.02264952	     -1.67234681	     15.12746502	     -0.04929143	      1.00012598	     -0.73273804	      9.25042433	     13.38590119	    -10.13814113	    -19.21164788	      8.46127846	    -10.72323787	     11.24496253	    -10.62416150	     -9.96665406	    -65.53164390	     -1.61009028	     11.75472207	    -14.65233755	      4.90266825	      2.24928663
      4.81000000	      3.08908503	     -1.65444620	     14.14706477	     -0.04293952	      1.00057295	     -0.73304793	      8.65665862	     13.53523916	     -9.17269732	    -19.22545980	      8.66119239	    -10.71004173	     11.92263642	    -10.95335171	     -9.37130075	    -65.43936016	     -1.04309013	     11.11954027	    -14.84071652	      4.70792141	      2.67399034
      4.82000000	      3.14778817	     -1.64616125	     13.17342146	     -0.03667142	      1.00100332	     -0.73327289	      8.06213535	     13.67836501	     -8.22574848	    -19.21225378	      8.85408679	    -10.68841558	     12.55658896	    -11.25550266	     -8.71355715	    -65.11884365	     -0.46431770	     10.39363045	    -15.01457291	      4.51912857	      3.09241972
      4.83000000	      3.18530707	     -1.66447962	     12.20777031	     -0.03046334	      1.00138161	     -0.73340570	      7.47757477	     13.83131388	     -7.30462172	    -19.15755326	      9.03031414	    -10.66015603	     13.16407688	    -11.55115401	     -8.00411502	    -64.58424082	      0.13994212	      9.63949708	    -15.14808649	      4.34798708	      3.52662791
      4.84000000	      3.21279150	     -1.70989537	     11.26824704	     -0.02439782	      1.00169178	     -0.73344662	      6.91018257	     14.00032680	     -6.38787584	    -19.08796114	      9.18277480	    -10.62062641	     13.75559458	    -11.85082119	     -7.24802693	    -63.87145184	      0.78436329	      8.77430043	    -15.27291331	      4.20280834	      3.91643684
      4.85000000	      3.21308201	     -1.79347013	     10.35012828	     -0.01846216	      1.00190034	     -0.73341735	      6.37947109	     14.19171973	     -5.48989825	    -19.00533140	      9.31413754	    -10.58154077	     14.35127306	    -12.16607213	     -6.46541248	    -62.99671615	      1.48424667	      7.87288830	    -15.36504327	      4.09903283	      4.28156710
      4.86000000	      3.17879192	     -1.91469333	      9.45129355	     -0.01262651	      1.00199373	     -0.73331982	      5.88627550	     14.40514111	     -4.61801205	    -18.90183886	      9.43323993	    -10.55045099	     14.95739441	    -12.50552805	     -5.68694549	    -61.97425354	      2.24913683	      6.91146336	    -15.41306597	      4.03213710	      4.64585306
      4.87000000	      3.10878262	     -2.06840161	      8.56334640	     -0.00687604	      1.00197610	     -0.73315476	      5.43095592	     14.63818754	     -3.76171965	    -18.78629097	      9.54049374	    -10.53271470	     15.57319075	    -12.86917955	     -4.94475991	    -60.81606229	      3.05887600	      5.85654432	    -15.41916371	      3.99803027	      5.01373788
      4.88000000	      3.00458973	     -2.24499466	      7.67205631	     -0.00120293	      1.00186775	     -0.73293047	      5.00748761	     14.88366724	     -2.88800824	    -18.66066209	      9.63181483	    -10.52831733	     16.19105129	    -13.25076461	     -4.27367234	    -59.53404490	      3.89108542	      4.70230010	    -15.39118351	      3.99168419	      5.39354096
      4.89000000	      2.88080571	     -2.42380147	      6.77124734	      0.00441990	      1.00171706	     -0.73267054	      4.60212732	     15.12148138	     -1.99504738	    -18.54376354	      9.71430484	    -10.53200364	     16.78582662	    -13.62420946	     -3.69462380	    -58.13155575	      4.72982072	      3.44418265	    -15.34873843	      3.99401974	      5.77932024
      4.90000000	      2.75198219	     -2.58276815	      5.85290882	      0.01002841	      1.00158152	     -0.73240791	      4.19206704	     15.32665063	     -1.08140939	    -18.43358031	      9.79765735	    -10.53738847	     17.32898868	    -13.96198810	     -3.23310860	    -56.61115104	      5.56171050	      2.12722010	    -15.30923339	      3.98562738	      6.17685765
      4.91000000	      2.63686957	     -2.69697869	      4.90845001	      0.01564275	      1.00152456	     -0.73217101	      3.75940106	     15.47155929	     -0.14194990	    -18.34319662	      9.88365983	    -10.53756186	     17.78920596	    -14.22698306	     -2.90209537	    -54.97469848	      6.36558680	      0.83760332	    -15.29680029	      3.94357410	      6.58585469
